<?xml version="1.0" encoding="utf-8"?>
<svg viewBox="150.247 152.942 135.578 122.483" width="135.578" height="122.483" xmlns="http://www.w3.org/2000/svg">
  <g style="" transform="matrix(1.1684, 0, 0, 1.254072, -36.24382, -53.066601)">
    <path style="stroke: rgb(0, 0, 0); fill: rgb(249, 249, 239); pointer-events: none;" d="M 186.988 174.91 C 190.263 176.547 194.114 179.9 197.765 180.488 C 209.553 182.386 222.58 176.565 234.106 179.863 C 247.737 183.763 245.752 199.455 253.709 207.709 C 259.46 213.674 267.245 212.842 271.286 221.429 C 275.291 229.939 264.937 241.262 257.742 243.932 C 244.74 248.757 231.365 240.802 218.209 241.592 C 207.762 242.219 199.955 249.116 189.32 244.335 C 178.088 239.285 180.529 224.237 177.851 214.605 C 174.247 201.639 162.956 192.103 174.116 179.113 C 175.768 177.19 178.188 175.521 180.601 174.732 C 183.079 173.922 186.746 174.531 189.343 174.531 L 186.988 174.91 Z"/>
    <ellipse cx="214.509" cy="211.309" rx="20.99" ry="20.99" style="fill: rgb(226, 206, 55);"/>
  </g>
</svg>