<?xml version="1.0" encoding="utf-8"?>
<svg viewBox="150.247 152.942 135.578 122.483" width="135.578" height="122.483" xmlns="http://www.w3.org/2000/svg">
  <path style="stroke: rgb(0, 0, 0); fill: rgb(183, 103, 42);" d="M 174.875 248.631 C 174.875 237.804 174.875 226.976 174.875 216.148 C 174.875 215.221 176.069 204.597 174.875 203.483 C 173.177 201.898 168.339 201.72 166.074 199.81 C 159.956 194.65 156.371 182.596 159.595 174.86 C 163.063 166.536 173.88 162.446 181.908 160.671 C 191.262 158.604 201.749 162.447 211.713 162.447 C 225.557 162.447 240.213 158.995 253.767 156.73 C 261.539 155.432 269.72 158.217 274.844 164.3 C 289.091 181.213 269.203 196.729 262.467 210.604 C 258.638 218.492 257.488 231.013 259.057 239.662 C 261.202 251.485 267 262.286 252.262 265.533 C 231.377 270.134 205.873 270.743 184.636 267.544 C 177.716 266.501 174.216 258.821 174.216 252.824 C 174.216 251.996 174.48 245.635 175.067 245.504"/>
</svg>